<?xml version="1.0" encoding="UTF-8" standalone="no"?>
<!-- Created with Inkscape (http://www.inkscape.org/) -->

<svg
   width="210mm"
   height="297mm"
   viewBox="0 0 210 297"
   version="1.1"
   id="svg5"
   xml:space="preserve"
   inkscape:version="1.2.1 (9c6d41e410, 2022-07-14)"
   sodipodi:docname="desenho.svg"
   xmlns:inkscape="http://www.inkscape.org/namespaces/inkscape"
   xmlns:sodipodi="http://sodipodi.sourceforge.net/DTD/sodipodi-0.dtd"
   xmlns:xlink="http://www.w3.org/1999/xlink"
   xmlns="http://www.w3.org/2000/svg"
   xmlns:svg="http://www.w3.org/2000/svg"><sodipodi:namedview
     id="namedview7"
     pagecolor="#ffffff"
     bordercolor="#666666"
     borderopacity="1.0"
     inkscape:showpageshadow="2"
     inkscape:pageopacity="0.0"
     inkscape:pagecheckerboard="0"
     inkscape:deskcolor="#d1d1d1"
     inkscape:document-units="mm"
     showgrid="false"
     inkscape:zoom="0.2973261"
     inkscape:cx="576.80775"
     inkscape:cy="731.52004"
     inkscape:window-width="1366"
     inkscape:window-height="697"
     inkscape:window-x="-8"
     inkscape:window-y="-8"
     inkscape:window-maximized="1"
     inkscape:current-layer="layer1" /><defs
     id="defs2"><linearGradient
       inkscape:collect="always"
       id="linearGradient6175"><stop
         style="stop-color:#77036d;stop-opacity:1;"
         offset="0"
         id="stop6171" /><stop
         style="stop-color:#ed5757;stop-opacity:1;"
         offset="1"
         id="stop6173" /></linearGradient><linearGradient
       inkscape:collect="always"
       xlink:href="#linearGradient6175"
       id="linearGradient6177"
       x1="-60.933289"
       y1="156.74237"
       x2="210"
       y2="309.14236"
       gradientUnits="userSpaceOnUse"
       gradientTransform="matrix(0.64747113,0,0,0.64747113,-153.2582,-299.32345)" /></defs><g
     inkscape:label="Camada 1"
     inkscape:groupmode="layer"
     id="layer1"><rect
       style="mix-blend-mode:darken;fill:url(#linearGradient6177);fill-opacity:1;fill-rule:nonzero;stroke-width:3.66792;stroke-linecap:round;stroke-linejoin:round"
       id="rect1634"
       width="175.42148"
       height="98.674599"
       x="-192.71074"
       y="-197.8373"
       ry="7.7782807"
       transform="scale(-1)"
       inkscape:export-filename="rect1634.png"
       inkscape:export-xdpi="148.26918"
       inkscape:export-ydpi="148.26918" /><g
       id="g14184"
       transform="translate(9.4249472,79.365377)"><path
         id="rect14103"
         style="opacity:1;fill:#ffffff;fill-opacity:1;fill-rule:nonzero;stroke:none;stroke-width:40.5419;stroke-linecap:round;stroke-linejoin:round"
         d="m 38.842552,49.718941 v 12.45763 26.37373 h 4.577699 v -26.37373 h 34.802298 v 26.37373 h 4.577808 v -26.37373 -12.45763 h -4.577808 z" /><path
         id="path14169"
         style="color:#000000;fill:#ffffff;stroke-width:9.31491;stroke-linecap:round"
         d="m 149.69745,46.364966 a 2.6314566,2.6314566 0 0 0 -1.01084,0.192765 2.6314566,2.6314566 0 0 0 -1.42006,1.42006 l -14.61889,34.92274 -14.59971,-34.92274 a 2.6314566,2.6314566 0 0 0 -1.43438,-1.42006 2.6314566,2.6314566 0 0 0 -2.00251,0.01917 2.6314566,2.6314566 0 0 0 -1.41998,3.43689 l 16.84756,40.29949 a 2.6314566,2.6314566 0 0 0 2.60902,1.58373 2.6314566,2.6314566 0 0 0 2.61376,-1.58373 l 16.84281,-40.29949 a 2.6314566,2.6314566 0 0 0 -1.40078,-3.43689 2.6314566,2.6314566 0 0 0 -1.006,-0.21136 z" /></g></g></svg>
